<?xml version="1.0" encoding="utf-8"?>
<!-- Generator: Adobe Illustrator 18.0.0, SVG Export Plug-In . SVG Version: 6.00 Build 0)  -->
<!DOCTYPE svg PUBLIC "-//W3C//DTD SVG 1.1//EN" "http://www.w3.org/Graphics/SVG/1.1/DTD/svg11.dtd">
<svg version="1.1" id="Layer_1" xmlns="http://www.w3.org/2000/svg" xmlns:xlink="http://www.w3.org/1999/xlink" x="0px" y="0px"
	 viewBox="0 0 416 405.3" enable-background="new 0 0 416 405.3" xml:space="preserve">
<path fill="#FF0000" d="M71,209.9c0,0,0-99,0-99l105.1-0.2c1.9,0,4.2-1.5,4.2-3.1s-2.1-3-4-3l-108.3,0.5c0,0-1.2-0.4-2.5,0.9
	c-1,1-1,2.6-1,2.6l0.2,101.4c0,0,0,4.8,3,4.8S71,209.9,71,209.9z"/>
<path fill="#FF0000" d="M221.8,151.6c2.6,0,4.8-1.4,4.8-3.1c0-1.6-2.1-3.1-4.8-3.1c0,0-33.8,0-33.8,0c-1.9,0-3.6,2.7-3.6,4.3
	c0,0,0,67.6,0,67.6l-1.2,0.1c-18,2-32,17.3-32,35.8c0,19.9,16.1,36,36,36s36-16.1,36-36c0-18.2-13.5-33.2-31-35.7l-1.7-0.2
	l-0.1-65.9L221.8,151.6z"/>
<path fill="#FF0000" d="M289.7,151.6l-0.1,65.9l-1.7,0.2c-17.5,2.4-31,17.5-31,35.7c0,19.9,16.1,36,36,36c19.9,0,36-16.1,36-36
	c0-18.5-14-33.8-32-35.8l-1.2-0.1c0,0,0-67.6,0-67.6c0-1.7-1.7-4.3-3.6-4.3c0,0-34.8,0-34.8,0c-2.7,0-4.8,1.4-4.8,3.1
	s2.2,3.1,4.8,3.1L289.7,151.6z"/>
<path fill="#FF0000" d="M221.4,142.9c2.6,0,4.6-0.6,4.8-3.1c0.2-2.7-2.1-3.1-4.8-3.1c0,0-141.8,0-141.8,0c0.1,0-3.6,2.7-3.6,4.3
	c0,0,0,76.3,0,76.3l-1.2,0.1c-18,2-32,17.3-32,35.8c0,19.9,16.1,36,36,36s36-16.1,36-36c0-18.2-13.5-33.2-31-35.7l-1.7-0.2l0-74.5
	L221.4,142.9z"/>
<path fill="#FF0000" d="M257,143.3h88l0.1,211H296v-27c0,0-0.4-3.1-3.1-3.1s-3,3.1-3,3.1l0,26.5l-99.8-0.4v-26.2c0,0-0.1-2.9-3-3
	c-3-0.1-3,3-3,3v26.3l-102,0v-26.1c0,0,0.2-3.1-2.9-3.1c-3,0-3.2,3.2-3.2,3.2s0.1,29.4,0.1,29.5c0,1.8,1.1,3,2.9,3
	c0.1,0,241.7,0.5,270.2,0.6c1.8,0,2.7-3.1,2.7-3.1s0.3-214.5,0.3-214.8c-0.1-3.2-2.3-5.8-4.7-5.8c-0.2,0-90.2,0-90.2,0
	s-4.1-0.1-4.1,2.8C252.9,143.3,257,143.3,257,143.3z"/>
<path fill="#FF0000" d="M293,28.9l-53,0c0,0-1.6-0.2-2.8,1.1c-1,1.1-1,2.6-1,2.6l0.3,151.8H202v-23h21c0,0,3.2-1,3.2-3.8
	s-3.2-3.2-3.2-3.2s-22.7-0.2-22.8-0.2c-1.9-0.1-3.2,2-4.2,3v29.2c1,1.3,3.4,2.3,5.5,2.3c0.2,0,36.5,0,36.6,0c2.2,0,3.6-3.1,3.8-5.9
	c0-0.2-0.1-148.2-0.1-148.2l47.3,0.1v20.7c0,0,1,3.2,3.8,3.2c2.3,0,3-2.8,3-2.8l-0.1-21.1l69.2-0.1c0,0,3.7-1,3.5-3.4
	c-0.1-2-3.5-2.8-3.5-2.8l-71,0.2L293,28.9z"/>
<path fill="#FF0000" d="M289.5,129.3l0-21c0,0,0.6-2.5,2.7-2.5c1.9,0,2.8,2.5,2.8,2.5v21c0,0,0.1,2.5-0.4,3.8
	c-0.6,1.5-1.8,2.2-1.8,2.2h-36.4c-1.9,0-3.4-1.4-3.4-3c0-1.6,1.4-3,3.4-3H289.5z"/>
</svg>
